<svg xmlns="http://www.w3.org/2000/svg" version="1.0" width="713.000000pt" height="717.000000pt" viewBox="0 0 713.000000 717.000000" preserveAspectRatio="xMidYMid meet">

<g transform="translate(0.000000,717.000000) scale(0.100000,-0.100000)" fill="#000000" stroke="none">
<path d="M237 6953 c-4 -3 -7 -286 -7 -629 0 -558 2 -622 16 -628 9 -3 289 -6 623 -6 459 0 610 3 619 12 9 9 12 160 12 619 0 334 -3 614 -6 623 -6 14 -70 16 -628 16 -343 0 -626 -3 -629 -7z m1061 -597 c1 -317 -1 -442 -9 -452 -10 -12 -88 -14 -453 -12 l-441 3 -3 453 -2 452 452 -2 453 -3 3 -439z"/>
<path d="M592 6598 c-19 -19 -17 -521 2 -537 9 -8 91 -11 277 -9 l264 3 3 264 c2 186 -1 268 -9 277 -16 19 -518 21 -537 2z"/>
<path d="M1695 6948 c-3 -7 -4 -121 -3 -253 l3 -240 175 -6 c96 -3 176 -6 178 -7 1 -1 2 -90 2 -197 l0 -195 -175 0 c-96 0 -176 -1 -177 -2 -1 -2 -5 -160 -8 -353 l-5 -350 -92 -3 -93 -3 0 69 c0 39 -5 73 -12 80 -12 12 -143 17 -172 6 -13 -5 -16 -22 -16 -80 l0 -74 -80 0 -80 0 0 68 c0 40 -5 73 -12 80 -17 17 -519 17 -536 0 -8 -8 -12 -63 -12 -180 l0 -169 -92 3 -93 3 -3 85 c-2 46 -8 90 -14 97 -8 10 -31 13 -77 11 l-66 -3 0 -630 0 -630 78 -3 77 -3 0 -99 0 -99 -77 -3 -78 -3 0 -170 0 -170 169 -3 c96 -1 172 2 175 7 3 5 4 39 3 75 l-4 66 -78 0 c-114 0 -110 -4 -110 106 l0 94 173 -2 172 -3 0 -370 0 -370 -63 -3 c-87 -4 -93 3 -91 100 1 44 -3 84 -8 89 -5 5 -48 9 -94 7 l-84 -3 -3 -75 c-4 -123 -1 -119 -85 -122 l-72 -3 0 -175 0 -175 170 0 170 0 3 75 c4 125 1 121 85 118 l72 -3 5 -370 5 -370 95 0 95 0 3 85 c2 46 8 90 14 97 15 18 161 18 177 0 6 -8 12 -77 13 -178 l3 -164 270 -5 270 -5 5 -270 5 -270 178 -3 177 -2 -2 -178 -3 -177 -164 -3 c-101 -1 -170 -7 -178 -13 -18 -16 -19 -519 -1 -537 7 -7 40 -12 80 -12 l68 0 2 -173 3 -172 95 0 95 0 5 350 5 350 273 3 273 2 -3 -97 -3 -98 -90 -5 -90 -5 -3 -65 c-2 -36 -8 -69 -13 -75 -5 -5 -49 -12 -97 -15 l-87 -5 0 -170 0 -170 270 0 270 0 0 75 0 75 -70 3 c-40 2 -73 8 -77 15 -9 14 -11 139 -2 161 5 12 21 16 68 16 33 0 66 4 73 8 7 4 13 37 15 77 l3 70 95 5 95 5 0 95 0 95 -178 3 -178 2 2 271 c1 221 -1 273 -12 280 -8 5 -51 9 -96 9 l-83 0 0 95 0 95 175 0 174 0 3 -92 3 -93 95 0 95 0 0 170 0 170 -164 3 c-101 1 -170 7 -178 13 -18 15 -18 162 0 177 7 6 42 12 77 14 l65 3 3 65 c2 35 8 70 14 77 7 9 39 13 99 13 l88 0 3 -78 3 -77 75 -5 75 -5 5 -95 5 -95 83 -3 c53 -2 89 1 98 9 19 15 20 319 2 337 -8 8 -63 12 -180 12 l-168 0 0 88 c0 55 4 92 12 100 9 9 84 12 274 12 230 0 263 2 268 16 3 9 6 87 6 175 l0 159 75 0 75 0 0 -70 c0 -56 3 -71 18 -78 22 -12 153 -15 169 -4 7 4 13 37 15 77 l3 70 178 3 177 2 -2 -172 -3 -173 -164 -3 c-99 -1 -170 -7 -178 -13 -9 -8 -13 -56 -15 -178 l-3 -166 -97 -3 -97 -3 -3 78 -3 78 -70 0 -70 0 0 -75 0 -75 73 -3 73 -3 -3 -97 -3 -97 -72 -3 -73 -3 -2 -172 -3 -172 -184 -3 c-112 -1 -190 -7 -197 -13 -9 -7 -14 -42 -16 -97 l-3 -87 -67 -3 c-41 -2 -71 -8 -78 -17 -6 -8 -10 -40 -8 -77 l3 -63 164 -3 c101 -1 170 -7 178 -13 9 -8 13 -39 13 -100 l0 -88 -97 -3 -98 -3 0 -175 0 -175 95 -5 95 -5 3 -93 3 -92 -101 0 -100 0 0 95 0 96 -77 -3 -78 -3 0 -90 0 -90 77 -3 77 -3 3 -77 3 -77 95 0 95 0 3 77 3 77 97 3 97 3 3 172 2 173 173 2 172 3 3 98 3 97 99 0 100 0 0 -94 c0 -76 3 -95 16 -100 9 -3 90 -6 180 -6 l164 0 0 -69 c0 -45 -5 -72 -13 -80 -9 -7 -103 -12 -278 -13 l-264 -3 0 -170 0 -170 349 -3 c271 -2 351 1 357 10 5 7 8 78 8 158 0 80 0 153 1 163 0 15 11 17 95 17 l95 0 0 -162 c0 -90 4 -169 8 -176 6 -9 33 -12 98 -10 l89 3 0 250 0 250 -272 3 -273 2 0 188 c0 133 -4 192 -12 200 -8 8 -45 12 -100 12 l-88 0 0 168 c0 117 -4 172 -12 180 -16 16 -120 16 -136 0 -8 -8 -12 -63 -12 -180 l0 -168 -94 0 c-76 0 -95 -3 -100 -16 -3 -9 -6 -54 -6 -100 l0 -84 -88 0 c-55 0 -92 4 -100 12 -18 18 -17 322 1 336 7 6 51 12 97 14 l85 3 3 92 c3 107 10 101 -118 105 l-75 3 -3 70 c-5 116 -7 114 101 117 l92 3 5 75 5 75 98 3 97 3 0 -69 c0 -39 5 -73 12 -80 17 -17 123 -16 137 2 7 9 11 40 9 78 l-3 63 -77 3 -78 3 0 173 c0 198 -6 186 91 186 67 0 67 0 71 -100 l3 -55 86 -3 c63 -2 89 1 97 11 7 8 13 74 14 178 l3 164 72 3 c84 3 81 7 85 -118 l3 -75 90 0 90 0 0 95 0 95 -92 3 -93 3 0 159 c0 87 -3 165 -6 174 -5 14 -31 16 -180 16 l-173 0 -3 98 -3 97 -49 3 c-39 3 -62 -4 -120 -32 -39 -19 -100 -42 -134 -51 -70 -18 -229 -34 -334 -35 l-67 0 -3 -37 -3 -38 -195 -5 -195 -5 -3 -65 c-2 -35 -7 -69 -12 -76 -13 -14 -105 -17 -130 -4 -15 8 -20 23 -22 78 l-3 67 -85 3 c-46 2 -90 8 -97 13 -8 7 -13 43 -15 97 l-3 87 -170 5 -170 5 -3 77 -3 78 173 2 173 3 0 95 0 95 -172 3 -172 2 -3 98 -3 97 -164 3 c-112 2 -168 -1 -177 -9 -10 -8 -14 -37 -14 -101 l0 -89 -97 3 -98 3 -3 173 -2 172 -275 0 -275 0 0 100 0 100 273 2 272 3 3 98 3 98 97 -3 97 -3 3 -92 c1 -51 4 -94 5 -95 1 -1 81 -4 177 -7 l175 -6 3 -172 2 -173 95 0 94 0 3 73 3 72 77 3 77 3 3 -73 3 -73 36 -3 36 -3 7 138 c4 76 9 155 12 176 l6 37 -40 0 c-22 0 -44 6 -50 13 -6 7 -12 51 -14 97 l-3 85 -65 3 c-35 2 -70 8 -77 14 -17 13 -17 120 -1 136 8 8 63 12 180 12 l167 0 3 -54 3 -54 58 54 58 54 -61 0 -60 0 0 100 0 99 78 3 77 3 5 270 5 270 98 3 97 3 0 -95 c0 -76 3 -95 16 -100 9 -3 177 -6 374 -6 l359 0 3 -92 3 -93 65 -3 c35 -2 70 -8 77 -14 10 -8 13 -65 13 -240 0 -139 4 -237 10 -249 9 -16 22 -19 94 -19 67 0 85 -3 90 -16 3 -9 6 -93 6 -189 0 -182 -4 -199 -47 -195 -41 5 -43 2 -43 -75 l0 -75 34 0 c18 0 38 -6 45 -13 6 -9 12 -83 13 -198 l3 -184 66 -3 c46 -2 69 1 77 11 6 7 12 51 14 97 l3 85 90 0 90 0 3 -75 c4 -127 -3 -120 107 -120 l95 0 0 -64 c0 -96 0 -96 86 -96 l74 0 0 -100 0 -99 -77 -3 -78 -3 -3 -65 c-2 -52 0 -67 14 -77 22 -16 116 -17 132 -1 7 7 12 40 12 80 l0 68 89 0 c64 0 92 4 100 14 8 9 11 45 9 98 l-3 83 -97 3 -98 3 0 79 0 79 98 3 97 3 3 273 2 272 68 0 c40 0 73 5 80 12 8 8 12 45 12 100 l0 88 195 0 195 0 0 -95 c0 -110 7 -103 -120 -107 l-75 -3 -3 -72 -3 -72 -92 -3 -92 -3 0 -95 0 -95 90 -5 90 -5 0 -95 0 -95 -90 -5 -90 -5 0 -75 0 -75 90 -5 90 -5 0 -95 0 -95 -92 -3 -93 -3 0 -73 c0 -87 -2 -86 111 -86 l79 0 0 -95 0 -95 -344 0 c-283 0 -346 -2 -355 -14 -8 -9 -11 -45 -9 -98 l3 -83 350 -5 350 -5 3 -77 3 -78 -173 -2 -173 -3 -3 -164 c-1 -101 -7 -170 -13 -178 -16 -18 -162 -18 -178 0 -6 8 -12 77 -13 178 l-3 164 -75 0 -75 0 -5 -95 -5 -95 -97 -3 -97 -3 -3 98 -3 98 -90 0 -90 0 0 -95 0 -95 93 -3 93 -3 -3 -77 -3 -77 -172 -3 -173 -2 0 -95 0 -95 159 0 c88 0 166 -3 175 -6 13 -5 16 -24 16 -100 l0 -94 -89 0 c-50 0 -92 -4 -95 -8 -9 -15 -9 -333 0 -342 6 -6 231 -11 549 -12 l540 -3 3 -75 c4 -133 -14 -121 185 -118 l172 3 5 95 5 95 98 3 97 3 0 -95 c0 -76 3 -95 16 -100 29 -11 160 -6 172 6 8 8 12 45 12 100 l0 89 78 -3 77 -3 5 -95 5 -95 93 -3 92 -3 0 -175 0 -174 -272 2 -273 3 -5 90 -5 90 -175 0 -175 0 0 -170 0 -170 530 0 530 0 0 450 0 450 -66 3 c-46 2 -69 -1 -77 -11 -6 -7 -12 -51 -14 -97 l-3 -85 -95 -3 -95 -3 3 89 c4 108 -1 114 -90 110 l-63 -3 -3 -97 -3 -98 -100 0 -99 0 2 178 3 177 95 5 95 5 3 83 c2 52 -1 89 -8 98 -8 9 -40 14 -98 16 l-87 3 0 90 0 90 85 3 c46 2 90 8 97 13 7 6 13 40 15 77 l3 67 173 3 172 2 0 -69 c0 -85 8 -93 92 -89 l63 3 0 75 0 75 -77 3 -78 3 0 88 c0 60 4 92 13 99 7 6 42 12 77 14 l65 3 0 75 0 75 -174 5 -174 5 2 90 c1 49 5 93 7 97 3 4 45 8 95 8 l89 0 0 95 0 95 -37 0 c-21 1 -94 1 -163 1 -69 0 -131 3 -137 7 -7 4 -13 38 -15 77 l-3 70 -95 0 -95 0 0 -170 0 -170 85 -3 c46 -2 90 -8 97 -14 9 -7 13 -39 13 -99 l0 -88 -97 -3 -98 -3 -3 -170 c-2 -120 -6 -171 -15 -177 -21 -13 -521 -10 -535 4 -8 8 -12 45 -12 100 l0 87 98 3 97 3 3 265 c1 151 6 268 12 274 5 5 36 8 68 7 75 -3 84 7 80 91 l-3 63 -67 3 c-40 2 -71 8 -78 16 -7 9 -10 46 -8 98 l3 83 75 5 75 5 5 75 5 75 184 3 c123 2 188 -1 197 -9 8 -6 14 -37 16 -77 l3 -67 77 -3 77 -3 3 -97 3 -97 90 0 90 0 3 97 3 97 77 3 77 3 0 75 0 75 -63 3 c-84 4 -92 -4 -92 -89 l0 -69 -95 0 -95 0 0 169 c0 127 -3 171 -13 180 -8 6 -77 12 -178 13 l-164 3 -3 173 -2 173 97 -3 98 -3 3 -72 3 -73 172 -2 172 -3 3 -75 c4 -125 1 -121 85 -118 l72 3 3 172 2 173 -172 2 -173 3 -3 97 -3 97 93 3 93 3 0 95 0 95 -170 0 -170 0 -3 -85 c-2 -46 -8 -90 -14 -97 -7 -9 -39 -13 -99 -13 l-88 0 -3 98 -3 97 -95 0 -95 0 -3 -98 -3 -98 -77 3 -77 3 -3 277 -2 277 77 3 78 3 3 69 c2 49 -1 72 -10 77 -7 5 -43 9 -80 9 l-68 0 0 -80 0 -80 -100 0 -100 0 0 69 c0 47 4 72 14 80 9 8 45 11 98 10 l83 -2 5 94 5 94 75 0 75 0 3 -92 c2 -80 5 -93 20 -94 9 0 53 -1 97 -2 l80 -2 5 -175 5 -175 92 -3 c107 -3 101 -10 105 118 l3 75 77 3 77 3 3 -98 3 -98 170 0 170 0 3 89 c2 65 -1 92 -10 98 -7 4 -86 8 -175 8 l-161 0 -4 53 c-1 28 -2 64 0 80 l3 27 95 0 94 0 0 183 c0 100 4 187 8 194 4 7 37 13 77 15 l70 3 0 75 0 75 -170 0 -170 0 -3 -272 -2 -273 -181 0 -180 0 3 93 3 92 85 3 c46 2 90 8 97 14 10 8 13 71 13 279 l0 269 253 2 252 3 3 69 c2 49 -1 72 -10 77 -15 10 -458 12 -482 3 -13 -5 -16 -22 -16 -80 l0 -74 -197 2 -198 3 -3 70 c-2 40 -8 73 -15 77 -7 4 -130 8 -274 8 l-263 0 0 263 c0 144 -4 268 -8 274 -6 9 -57 13 -177 15 l-170 3 -3 97 -3 97 98 3 98 3 3 172 c3 197 -6 180 102 185 l55 3 0 170 0 170 -75 0 -75 0 -3 -65 c-2 -35 -8 -70 -14 -77 -7 -9 -39 -13 -99 -13 l-88 0 -3 78 -3 77 -75 0 -75 0 -3 -63 c-4 -84 4 -92 89 -92 l69 0 0 -275 0 -276 -77 3 -78 3 -3 164 c-1 101 -7 170 -13 178 -15 18 -162 18 -177 0 -6 -7 -12 -42 -14 -77 l-3 -65 -92 -3 -93 -3 0 163 c0 90 -4 168 -8 175 -4 7 -37 13 -77 15 l-70 3 -5 75 -5 75 -95 0 -95 0 -3 -65 c-2 -35 -8 -70 -14 -77 -6 -8 -33 -13 -68 -13 -35 0 -62 5 -68 13 -6 7 -12 42 -14 77 l-3 65 -1005 0 -1005 0 -3 -65 c-2 -35 -8 -70 -14 -77 -7 -9 -37 -13 -88 -13 -51 0 -81 4 -88 13 -6 7 -12 42 -14 77 l-3 65 -73 3 c-53 2 -74 -1 -77 -10z m2175 -247 l5 -94 83 2 c53 1 89 -2 98 -10 10 -8 14 -33 14 -80 l0 -69 80 0 80 0 0 68 c0 40 5 73 12 80 7 7 42 12 88 12 46 0 81 -5 88 -12 7 -7 12 -40 12 -80 l0 -68 79 0 79 0 1 -92 c0 -50 4 -95 8 -99 5 -5 46 -9 93 -11 l85 -3 0 -95 0 -95 -172 -3 -173 -2 0 -80 0 -80 74 0 c58 0 75 -3 80 -16 8 -20 8 -338 0 -358 -5 -13 -22 -16 -80 -16 l-74 0 0 195 0 195 -100 0 -100 0 0 -89 c0 -108 -5 -113 -92 -109 l-63 3 -3 97 -3 97 -97 3 -97 3 0 75 0 75 98 3 97 3 0 199 0 200 -100 0 -99 0 -3 -97 -3 -98 -97 -3 -98 -3 0 -179 0 -180 100 0 100 0 0 -88 c0 -55 4 -92 12 -100 8 -8 45 -12 100 -12 l88 0 0 -95 0 -95 69 0 c85 0 93 -8 89 -92 l-3 -63 -77 -3 -78 -3 0 -179 0 -180 69 0 c44 0 72 5 79 13 6 7 12 42 14 77 l3 65 92 3 c107 3 101 -4 105 122 l3 75 173 3 172 2 0 68 c0 40 5 73 12 80 8 8 45 12 100 12 l88 0 0 95 0 95 69 0 c44 0 72 5 79 13 6 7 12 51 14 97 l3 85 95 0 95 0 3 -272 2 -273 173 -2 172 -3 0 -275 0 -275 -92 -3 -93 -3 0 -174 0 -175 95 0 96 0 -3 -97 -3 -98 -92 -3 -93 -3 -2 -177 -3 -177 -77 -3 -77 -3 -3 -97 -3 -97 -95 -5 -95 -5 -5 -70 -5 -70 -175 0 -175 0 -3 72 -3 72 -92 3 -92 3 0 195 0 195 93 3 93 3 -3 77 -3 77 -90 5 -90 5 -3 169 c-2 129 1 171 10 178 16 10 149 10 165 0 7 -4 13 -37 15 -77 l3 -70 277 -3 278 -2 2 272 3 273 65 3 c35 2 70 8 77 14 8 6 13 33 13 68 0 35 -5 62 -13 68 -7 6 -42 12 -77 14 l-65 3 -3 98 -3 97 -99 0 -99 0 -3 -97 -3 -98 -75 0 -75 0 -3 98 -3 97 -99 0 -100 0 0 -180 0 -179 98 -3 97 -3 3 -89 c2 -65 -1 -92 -10 -98 -21 -12 -162 -10 -176 4 -8 8 -12 45 -12 100 l0 88 -172 -2 -173 -3 -3 -97 -3 -98 75 0 c87 0 86 2 86 -111 l0 -79 -80 0 -80 0 0 95 0 95 -180 0 -180 0 0 100 0 100 -88 0 c-55 0 -92 4 -100 12 -8 8 -12 63 -12 180 l0 168 -94 0 c-78 0 -95 3 -100 17 -4 9 -6 131 -6 272 l1 256 -75 3 -76 3 0 -260 c0 -143 -3 -266 -6 -275 -5 -14 -31 -16 -188 -16 -99 0 -186 -4 -193 -8 -8 -5 -13 -41 -15 -97 l-3 -90 -77 -3 -77 -3 -3 -77 -3 -77 -95 -5 -95 -5 -5 -95 -5 -95 -170 0 -170 0 0 355 0 355 94 0 95 0 -2 -65 c-2 -36 1 -70 6 -77 4 -7 37 -13 77 -15 l70 -3 3 -75 c4 -127 -3 -120 107 -120 l95 0 2 373 3 372 75 0 75 0 3 -85 c2 -46 8 -90 14 -97 15 -19 162 -18 177 1 8 9 11 65 9 177 l-3 164 -95 5 -95 5 -5 95 -5 95 -177 3 -177 2 -3 -97 -3 -98 -65 -3 c-35 -2 -70 -8 -77 -13 -8 -7 -11 -34 -10 -77 l2 -67 75 -5 75 -5 0 -190 0 -190 -75 0 -75 0 0 193 0 192 -97 0 -98 0 0 -88 c0 -55 -4 -92 -12 -100 -12 -12 -143 -17 -172 -6 -13 5 -16 24 -16 100 l0 94 -80 0 -80 0 0 -88 c0 -55 -4 -92 -12 -100 -18 -18 -162 -16 -177 2 -8 9 -11 45 -9 98 l3 83 98 3 97 3 0 79 0 80 80 0 80 0 2 198 3 197 95 0 95 0 5 -95 5 -95 173 -3 173 -2 -3 97 -3 98 -172 3 -173 2 0 175 0 175 728 -2 727 -3 5 -94z m1105 -911 l0 -95 -83 -3 c-53 -2 -89 1 -98 9 -15 12 -21 169 -7 183 4 4 48 5 98 4 l90 -3 0 -95z m-2776 -304 c7 -9 11 -40 9 -78 l-3 -63 -175 0 -175 0 -3 63 c-2 38 2 69 9 78 9 11 45 14 169 14 124 0 160 -3 169 -14z m-1061 -243 l-3 -98 -97 -3 -97 -3 -3 -77 -3 -77 -90 -3 c-56 -2 -92 -7 -97 -15 -13 -20 -9 -162 4 -175 9 -9 85 -12 280 -12 l267 0 3 98 3 97 450 0 450 0 0 -190 0 -190 -77 -3 -78 -3 0 -79 0 -80 178 -2 177 -3 3 -155 c4 -216 11 -201 -101 -198 l-92 3 -5 75 -5 75 -75 5 -75 5 -3 98 -3 97 -99 0 -100 0 0 -180 0 -180 -275 0 -275 0 0 -100 0 -100 -80 0 -80 0 0 -94 c0 -108 -2 -106 96 -106 l64 0 0 -75 0 -75 193 -2 192 -3 3 -197 2 -197 78 -3 77 -3 3 -177 2 -178 178 -2 177 -3 3 -63 c2 -35 -2 -69 -7 -76 -7 -8 -37 -14 -73 -15 -35 -1 -66 -5 -71 -10 -4 -4 -7 -46 -5 -92 l3 -84 65 -3 c35 -2 70 -8 77 -14 10 -8 13 -54 13 -179 l0 -169 88 0 c55 0 92 -4 100 -12 18 -18 16 -162 -2 -177 -9 -8 -45 -11 -98 -9 l-83 3 -3 98 -3 97 -79 0 -80 0 0 -180 0 -179 78 -3 77 -3 3 -93 3 -92 100 0 100 0 -3 -97 -3 -98 -95 0 -95 0 -3 98 -3 97 -79 0 -80 0 0 95 0 95 -89 0 c-63 0 -92 4 -100 14 -8 9 -11 65 -9 177 l3 164 98 3 98 3 -3 77 -3 77 -172 3 c-199 3 -181 -9 -185 122 l-3 75 -92 3 -93 3 0 -88 c0 -48 -4 -94 -8 -101 -6 -9 -33 -12 -98 -10 l-89 3 0 95 0 95 98 3 97 3 0 89 c0 51 -4 92 -10 95 -6 4 -127 6 -269 6 -214 -2 -260 1 -270 13 -7 9 -11 39 -9 78 l3 63 85 3 c46 2 90 8 97 14 9 7 13 39 13 99 l0 88 -97 3 -98 3 -3 164 c-2 112 1 168 9 177 8 10 37 14 100 14 l89 0 0 89 c0 60 -4 92 -13 99 -7 6 -51 12 -97 14 l-85 3 0 170 0 170 98 3 97 3 0 99 0 99 -97 3 -98 3 -5 75 -5 75 -97 3 -97 3 -3 -78 -3 -78 -173 -3 -173 -2 3 77 3 78 173 3 172 2 0 174 c0 196 4 186 -80 186 -78 0 -80 -2 -80 -86 l0 -74 -95 0 -95 0 0 74 c0 86 -2 85 116 83 l76 0 -2 276 -1 277 181 0 180 0 0 88 c0 55 4 92 12 100 8 8 45 12 100 12 l89 0 -3 -97z m360 9 c2 -55 -1 -89 -9 -98 -9 -11 -33 -14 -98 -12 l-86 3 -3 98 -3 98 98 -3 98 -3 3 -83z m2010 -124 c7 -7 12 -37 12 -68 0 -31 -5 -61 -12 -68 -8 -8 -45 -12 -100 -12 l-88 0 0 73 c0 41 3 77 7 80 12 12 168 8 181 -5z m2537 -68 l0 -75 -63 -3 c-81 -4 -92 5 -92 73 0 85 2 86 84 83 l71 -3 0 -75z m-3097 -482 c7 -7 12 -40 12 -80 l0 -68 -275 0 -275 0 0 74 c0 50 4 76 13 79 6 3 125 6 263 6 182 1 253 -2 262 -11z m3300 -805 l-3 -98 -83 -3 c-53 -2 -89 1 -98 9 -10 8 -14 36 -14 100 l0 89 100 0 101 0 -3 -97z m-209 -267 c8 -9 11 -45 9 -98 l-3 -83 -75 0 -75 0 -3 83 c-2 53 1 89 9 98 7 9 32 14 69 14 37 0 62 -5 69 -14z m-3631 -289 l3 -97 -178 2 -178 3 -3 98 -3 97 178 -2 178 -3 3 -98z m2716 97 c13 -5 16 -24 16 -100 l0 -94 -80 0 -80 0 0 88 c0 55 4 92 12 100 12 12 104 17 132 6z m-2524 -628 c0 -50 -4 -75 -12 -78 -21 -8 -136 -10 -158 -3 -18 6 -20 15 -20 81 l0 74 95 0 95 0 0 -74z m0 -347 c3 -36 3 -79 0 -95 l-5 -29 -90 0 -90 0 -3 84 c-2 46 0 91 2 98 4 11 26 13 93 11 l88 -3 5 -66z m4008 -197 c4 -85 -4 -94 -87 -90 l-66 3 -3 78 -3 78 78 -3 78 -3 3 -63z m-563 -727 l0 -270 -270 0 -270 0 -3 273 -2 272 272 -2 273 -3 0 -270z m-917 -124 c9 -5 12 -28 10 -77 l-3 -69 -169 -3 c-129 -2 -171 1 -178 10 -9 16 -11 132 -1 141 9 10 326 8 341 -2z m-898 -235 c0 -118 2 -116 -86 -116 l-74 0 0 100 0 100 80 0 80 0 0 -84z m-715 -139 c3 -12 5 -56 3 -97 l-3 -75 -95 0 -95 0 -3 98 -3 97 95 0 c91 0 96 -1 101 -23z"/>
<path d="M3131 6596 c-7 -9 -11 -40 -9 -78 l3 -63 87 -3 c54 -2 90 -7 97 -15 5 -7 11 -51 13 -97 l3 -85 173 -3 172 -2 0 88 c0 55 4 92 12 100 8 8 45 12 100 12 l88 0 0 80 0 80 -364 0 c-301 0 -366 -2 -375 -14z"/>
<path d="M4230 6250 l0 -200 -80 0 -80 0 0 -80 0 -80 80 0 80 0 0 80 0 80 100 0 100 0 0 200 0 200 -100 0 -100 0 0 -200z"/>
<path d="M2210 5970 l0 -81 98 3 97 3 3 54 c6 101 6 101 -103 101 l-95 0 0 -80z"/>
<path d="M3882 5488 c-7 -7 -12 -40 -12 -80 l0 -68 100 0 100 0 0 80 0 80 -88 0 c-55 0 -92 -4 -100 -12z"/>
<path d="M4980 5420 l0 -80 80 0 80 0 0 68 c0 40 -5 73 -12 80 -7 7 -40 12 -80 12 l-68 0 0 -80z"/>
<path d="M5340 4330 l0 -100 -177 -2 -178 -3 -3 -77 -3 -78 -99 0 -100 0 0 -89 c0 -64 4 -92 14 -100 9 -8 45 -11 98 -9 l83 3 3 98 3 98 77 -3 77 -3 3 -90 c2 -56 7 -92 15 -97 7 -4 51 -8 100 -8 l87 0 0 180 0 180 80 0 80 0 0 100 0 100 -80 0 -80 0 0 -100z"/>
<path d="M1300 4686 c0 -53 4 -96 10 -98 5 -1 49 -1 97 2 l88 5 3 70 c5 117 7 115 -103 115 l-95 0 0 -94z"/>
<path d="M1857 4774 c-4 -4 -7 -50 -7 -102 0 -93 0 -94 23 -88 12 3 57 6 100 6 l78 0 -3 93 -3 92 -90 3 c-50 1 -94 0 -98 -4z"/>
<path d="M951 4576 c-7 -9 -11 -40 -9 -78 l3 -63 98 -3 97 -3 0 -179 0 -180 80 0 79 0 3 78 3 77 90 3 c56 2 92 7 97 15 13 20 9 162 -4 175 -8 8 -63 12 -180 12 l-168 0 0 68 c0 40 -5 73 -12 80 -18 18 -162 16 -177 -2z"/>
<path d="M1701 4576 c-7 -9 -11 -39 -9 -78 l3 -63 78 -3 78 -3 -3 78 -3 78 -66 3 c-48 2 -69 -1 -78 -12z"/>
<path d="M1140 3140 l0 -180 80 0 79 0 3 -97 3 -98 193 -3 192 -2 0 -70 c0 -80 9 -90 84 -90 74 0 76 3 76 86 l0 74 -80 0 -80 0 0 180 0 181 -97 -3 -97 -3 3 -63 c3 -87 -2 -92 -111 -92 l-89 0 3 78 3 77 98 3 97 3 0 87 c0 55 -4 92 -12 100 -8 8 -63 12 -180 12 l-168 0 0 -180z"/>
<path d="M5702 1488 c-14 -14 -16 -155 -4 -176 6 -9 33 -12 98 -10 l89 3 3 89 c2 65 -1 92 -10 98 -21 12 -162 10 -176 -4z"/>
<path d="M5696 6944 c-3 -8 -6 -289 -6 -623 0 -459 3 -610 12 -619 9 -9 161 -12 622 -12 336 0 617 4 624 8 10 7 12 140 10 633 l-3 624 -626 3 c-565 2 -627 1 -633 -14z m1102 -596 l-3 -453 -439 -3 c-316 -1 -443 1 -452 9 -12 9 -14 91 -14 449 0 240 3 440 7 443 3 4 208 7 455 7 l448 0 -2 -452z"/>
<path d="M6061 6596 c-8 -9 -11 -91 -9 -277 l3 -264 264 -3 c189 -2 268 1 278 9 11 10 13 60 13 268 -1 164 -5 260 -12 268 -16 20 -521 19 -537 -1z"/>
<path d="M3332 4581 c-9 -5 -12 -28 -10 -77 l3 -69 95 0 95 0 3 63 c2 38 -2 69 -9 78 -13 16 -154 20 -177 5z"/>
<path d="M3682 4578 c-7 -7 -12 -40 -12 -80 l0 -68 -75 0 -75 0 0 -43 0 -44 138 -7 c75 -4 154 -9 175 -13 l37 -6 0 131 c0 109 -3 131 -16 136 -29 11 -160 6 -172 -6z"/>
<path d="M3500 4306 c0 -9 -7 -16 -15 -16 -8 0 -15 -8 -15 -18 0 -10 -5 -23 -12 -30 -13 -13 -75 -16 -102 -6 -20 8 -21 24 -2 24 7 0 19 7 27 16 20 24 -4 33 -64 22 -65 -12 -85 -28 -34 -28 20 0 37 -4 37 -8 0 -23 -30 -32 -107 -32 -86 0 -126 -12 -154 -46 -7 -9 -14 -22 -15 -28 0 -6 -2 -17 -2 -25 -1 -8 -10 -11 -21 -8 -38 10 -92 -84 -127 -219 -50 -194 -42 -522 18 -700 13 -37 30 -70 38 -72 12 -3 13 -2 1 6 -23 16 -2 32 43 32 40 0 42 -2 40 -27 -1 -16 -2 -31 -3 -35 0 -5 -14 -8 -31 -8 -16 0 -30 -4 -30 -9 0 -5 20 -31 45 -59 36 -40 49 -48 70 -44 20 3 24 9 19 25 -6 20 -4 20 137 13 96 -5 148 -11 157 -20 21 -21 5 -111 -22 -124 -35 -16 96 -25 282 -19 326 10 494 90 587 281 53 108 66 184 72 411 4 174 2 213 -16 303 -40 204 -122 320 -277 394 -77 36 -232 68 -243 50 -6 -10 -20 -10 -67 -1 -32 6 -94 13 -136 16 -66 4 -78 2 -78 -11z m270 -61 c0 -8 -7 -15 -15 -15 -16 0 -20 12 -8 23 11 12 23 8 23 -8z m-96 -65 c14 -22 26 -44 26 -50 0 -5 6 -10 14 -10 8 0 18 -5 22 -11 4 -8 0 -9 -15 -4 -19 6 -21 3 -21 -34 0 -23 -4 -41 -8 -41 -5 0 -13 -16 -19 -35 -10 -30 -9 -35 5 -36 10 0 32 -2 50 -3 17 -2 32 0 32 5 0 18 37 8 58 -16 28 -32 37 -31 79 5 41 36 62 38 97 5 40 -37 35 -53 -16 -44 -24 4 -53 10 -65 14 -32 10 -29 -9 7 -48 16 -18 30 -37 30 -43 0 -6 7 -17 15 -24 11 -9 13 -16 5 -24 -15 -15 -12 -46 5 -46 9 0 21 -12 27 -27 l11 -28 10 28 c13 32 22 34 37 8 16 -32 12 -51 -19 -80 -30 -28 -30 -28 -93 -15 -35 8 -75 14 -90 14 -56 0 -37 19 22 22 l61 3 -36 38 c-20 21 -40 35 -46 32 -5 -4 -7 -11 -4 -16 4 -5 1 -9 -4 -9 -6 0 -11 7 -11 15 0 17 -16 20 -25 5 -4 -6 -12 -7 -18 -3 -7 4 -24 8 -39 9 -22 1 -29 -5 -43 -38 -9 -23 -24 -42 -35 -45 -17 -4 -20 -14 -20 -59 0 -57 14 -80 24 -39 4 14 10 25 14 25 11 0 35 -153 28 -177 -3 -10 3 -43 14 -73 11 -30 20 -56 20 -57 0 -2 -11 -3 -25 -3 -21 0 -29 9 -45 46 -11 25 -20 54 -20 65 0 10 -4 19 -9 19 -4 0 -25 13 -45 29 -20 16 -51 33 -68 37 -27 5 -35 2 -55 -22 -13 -16 -35 -52 -49 -80 -20 -42 -29 -51 -45 -47 -31 8 -33 29 -10 67 19 30 20 39 11 83 -6 26 -8 63 -5 81 8 46 -4 60 -26 31 l-19 -24 0 37 c0 20 -5 40 -11 43 -6 4 -9 0 -7 -8 2 -9 0 -16 -4 -16 -23 -2 -26 1 -21 19 5 17 0 20 -30 20 -51 0 -92 39 -84 80 6 26 3 31 -19 36 -23 6 -25 10 -21 53 4 45 4 46 45 54 33 6 40 11 35 25 -6 15 -5 15 11 -1 10 -10 25 -16 33 -13 11 5 13 -5 11 -52 -3 -52 -5 -57 -28 -60 -14 -2 -29 -8 -35 -14 -7 -8 -4 -9 8 -4 10 3 27 6 37 6 14 0 22 11 30 43 18 68 19 72 31 60 8 -8 23 -3 52 17 23 15 52 31 65 34 27 9 29 41 3 55 -25 14 -51 72 -44 99 7 29 46 29 65 0 13 -19 18 -21 31 -10 13 11 16 8 22 -20 4 -18 12 -36 18 -40 6 -4 9 -10 5 -13 -3 -3 -27 8 -54 24 -55 36 -75 40 -49 11 10 -11 24 -20 31 -20 23 0 36 -37 22 -60 -31 -50 69 -65 118 -19 33 31 30 36 -18 35 -32 -1 -43 3 -43 14 0 10 8 14 26 12 39 -5 74 28 65 61 -4 16 -14 27 -24 28 -13 0 -11 3 6 9 12 5 29 7 37 4 21 -9 19 3 -10 41 -23 29 -75 59 -59 33 4 -6 -4 -8 -17 -6 -37 5 -38 43 -2 56 52 19 69 14 97 -28z m-444 -10 c0 -5 -5 -10 -11 -10 -5 0 -7 5 -4 10 3 6 8 10 11 10 2 0 4 -4 4 -10z m225 -19 c0 -32 -16 -36 -43 -11 -11 11 -27 20 -34 20 -9 0 -9 -3 2 -10 13 -9 13 -11 0 -20 -19 -12 -32 -12 -64 0 -56 21 -8 48 84 46 51 -1 55 -3 55 -25z m139 -36 c4 -10 -1 -15 -14 -15 -20 0 -26 11 -13 23 10 11 20 8 27 -8z m-544 -66 c0 -6 -13 -2 -30 8 -16 9 -30 20 -30 24 0 4 14 1 30 -7 17 -9 30 -20 30 -25z m200 21 c0 -11 -2 -20 -5 -20 -2 0 -9 9 -15 20 -9 16 -8 20 5 20 8 0 15 -9 15 -20z m134 -33 c5 -21 3 -28 -6 -25 -7 3 -13 21 -14 42 -1 40 8 31 20 -17z m-394 -3 c0 -8 -4 -12 -10 -9 -5 3 -10 10 -10 16 0 5 5 9 10 9 6 0 10 -7 10 -16z m1095 6 c-3 -5 -12 -7 -20 -3 -21 7 -19 13 6 13 11 0 18 -4 14 -10z m-1105 -79 c0 -11 -4 -23 -10 -26 -6 -4 -10 5 -10 19 0 14 5 26 10 26 6 0 10 -9 10 -19z m80 10 c0 -6 -4 -13 -10 -16 -5 -3 -10 1 -10 9 0 9 5 16 10 16 6 0 10 -4 10 -9z m272 -41 c2 -28 -1 -35 -17 -37 -11 -1 -14 0 -7 3 15 7 16 36 1 51 -6 6 -8 17 -4 23 11 18 24 -1 27 -40z m-174 28 c17 -17 15 -68 -2 -68 -14 0 -26 29 -26 63 0 20 11 22 28 5z m219 -55 c-3 -10 -5 -4 -5 12 0 17 2 24 5 18 2 -7 2 -21 0 -30z m700 -85 c-3 -8 -6 -5 -6 6 -1 11 2 17 5 13 3 -3 4 -12 1 -19z m-1041 -72 c1 -1 4 -11 8 -22 8 -27 -27 -40 -49 -17 -8 8 -19 11 -25 8 -6 -4 -10 5 -10 19 0 23 3 24 38 19 20 -3 38 -6 38 -7z m140 -18 c-3 -13 -6 -32 -6 -43 -1 -20 -1 -20 -15 -1 -23 30 -19 66 6 66 17 0 20 -4 15 -22z m34 -68 c0 -5 -2 -10 -4 -10 -3 0 -8 5 -11 10 -3 6 -1 10 4 10 6 0 11 -4 11 -10z m77 -34 c3 -3 -12 -6 -35 -6 -23 0 -42 3 -42 8 0 9 68 8 77 -2z m-227 -12 c0 -2 -7 -4 -15 -4 -8 0 -15 4 -15 10 0 5 7 7 15 4 8 -4 15 -8 15 -10z m-70 -13 c0 -11 12 -23 30 -31 23 -10 29 -17 25 -31 -4 -12 -1 -19 7 -20 7 -1 -2 -5 -21 -9 -44 -11 -66 -3 -50 17 7 8 8 13 3 12 -28 -5 -35 3 -33 34 4 41 7 47 25 47 8 0 14 -8 14 -19z m1068 1 c-9 -2 -19 -11 -21 -20 -4 -13 -5 -11 -6 5 -1 22 16 35 34 24 6 -3 2 -7 -7 -9z m-163 -22 c-3 -5 -10 -10 -16 -10 -5 0 -9 5 -9 10 0 6 7 10 16 10 8 0 12 -4 9 -10z m-791 -16 c4 -9 4 -19 2 -22 -10 -9 -36 8 -36 23 0 20 26 19 34 -1z m256 -30 c0 -8 -4 -12 -10 -9 -5 3 -10 10 -10 16 0 5 5 9 10 9 6 0 10 -7 10 -16z m-336 -89 c-12 -19 -20 -23 -28 -15 -13 13 6 47 23 43 6 -2 11 3 12 10 0 9 2 9 5 0 3 -6 -2 -24 -12 -38z m-33 -57 l0 -23 9 23 c10 24 17 26 39 13 18 -11 1 -66 -21 -66 -19 0 -49 30 -40 40 4 5 -1 5 -10 2 -21 -7 -26 18 -5 26 23 10 27 7 28 -15z m144 2 c-3 -5 -17 -10 -31 -10 -13 0 -24 5 -24 10 0 6 14 10 31 10 17 0 28 -4 24 -10z m435 -4 c6 -8 18 -12 26 -9 7 3 17 -2 20 -11 8 -21 -4 -35 -15 -17 -6 10 -10 9 -15 -5 -4 -9 -2 -22 4 -28 19 -19 10 -26 -31 -26 -77 0 -102 39 -57 87 25 26 50 30 68 9z m-545 -76 c-3 -5 -17 -10 -30 -10 -13 0 -27 5 -30 10 -4 6 8 10 30 10 22 0 34 -4 30 -10z m185 -4 c0 -3 -4 -8 -10 -11 -5 -3 -10 -1 -10 4 0 6 5 11 10 11 6 0 10 -2 10 -4z m-167 -50 c10 -63 1 -76 -53 -76 -53 0 -61 9 -53 56 8 43 21 54 63 54 35 0 38 -2 43 -34z m114 -29 l2 -47 -39 0 c-22 0 -40 2 -40 5 0 16 26 55 37 55 7 0 13 9 13 21 0 43 25 11 27 -34z m150 -6 l-2 -46 -60 4 c-33 1 -61 4 -62 5 -1 1 1 20 4 43 l6 43 58 -1 58 -1 -2 -47z m-149 -89 c3 -26 0 -32 -16 -32 -11 0 -19 6 -18 13 0 6 -3 12 -9 12 -5 0 -9 -6 -9 -12 1 -7 -7 -13 -18 -13 -15 0 -19 6 -16 27 2 22 10 29 33 34 44 9 50 6 53 -29z m202 -4 c41 -26 23 -35 -67 -37 -95 -1 -117 6 -111 35 6 34 125 35 178 2z"/>
<path d="M3523 3523 c-7 -3 -13 -14 -13 -25 0 -14 5 -18 16 -14 9 3 21 6 27 6 9 0 9 2 1 8 -6 4 -13 12 -15 18 -2 6 -10 9 -16 7z"/>
<path d="M3661 3506 c-11 -13 -11 -20 -3 -28 8 -8 13 -7 18 5 10 27 0 41 -15 23z"/>
<path d="M3005 3720 c4 -6 11 -8 16 -5 14 9 11 15 -7 15 -8 0 -12 -5 -9 -10z"/>
<path d="M3008 3533 c7 -3 16 -2 19 1 4 3 -2 6 -13 5 -11 0 -14 -3 -6 -6z"/>
<path d="M2986 3131 c-19 -7 -18 -8 4 -14 26 -7 43 0 35 14 -7 10 -13 10 -39 0z"/>
<path d="M397 2602 l-167 -2 2 -453 3 -452 66 -3 c47 -2 69 1 77 11 8 9 13 94 14 258 l3 244 85 3 c47 2 89 7 93 11 10 10 9 373 -1 381 -4 3 -82 4 -175 2z"/>
<path d="M592 2038 c-19 -19 -17 -321 2 -337 9 -7 40 -11 78 -9 l63 3 0 175 0 175 -65 3 c-42 2 -70 -2 -78 -10z"/>
<path d="M1147 1843 c-4 -3 -7 -37 -7 -74 0 -52 4 -68 16 -73 31 -12 319 -7 332 6 12 12 17 104 6 132 -5 14 -30 16 -173 16 -92 0 -171 -3 -174 -7z"/>
<path d="M242 1492 c-10 -7 -12 -140 -10 -633 l3 -624 624 -3 c493 -2 626 0 633 10 4 7 8 288 8 624 0 461 -3 613 -12 622 -9 9 -161 12 -623 12 -335 0 -616 -4 -623 -8z m1047 -206 c8 -9 10 -136 9 -452 l-3 -439 -452 -3 -453 -2 0 448 c0 247 3 452 7 455 3 4 203 7 443 7 358 0 440 -2 449 -14z"/>
<path d="M592 1128 c-17 -17 -17 -519 0 -536 19 -19 521 -17 537 2 8 9 11 91 9 277 l-3 264 -265 3 c-198 2 -269 -1 -278 -10z"/>
<path d="M6812 1488 c-14 -14 -16 -155 -3 -176 5 -9 28 -12 77 -10 l69 3 3 89 c2 65 -1 92 -10 98 -20 12 -123 9 -136 -4z"/>
<path d="M5147 733 c-13 -12 -8 -130 6 -141 7 -6 51 -12 97 -14 l85 -3 5 -90 5 -90 67 -3 c37 -2 71 -8 77 -15 5 -7 11 -42 13 -77 l3 -65 93 -3 92 -3 0 256 0 255 -268 0 c-148 0 -272 -3 -275 -7z"/>
</g>
</svg>