<svg xmlns="http://www.w3.org/2000/svg" version="1.0" width="584.000000pt" height="590.000000pt" viewBox="0 0 584.000000 590.000000" preserveAspectRatio="xMidYMid meet">

<g transform="translate(0.000000,590.000000) scale(0.100000,-0.100000)" fill="#000000" stroke="none">
<path d="M300 5120 l0 -500 500 0 500 0 0 500 0 500 -500 0 -500 0 0 -500z m860 0 l0 -360 -360 0 -360 0 0 360 0 360 360 0 360 0 0 -360z"/>
<path d="M580 5120 l0 -220 220 0 220 0 0 220 0 220 -220 0 -220 0 0 -220z"/>
<path d="M1590 5405 l0 -215 -70 0 -70 0 0 -145 0 -145 70 0 70 0 0 -70 0 -70 -70 0 -70 0 0 -70 0 -70 70 0 70 0 0 -145 0 -145 75 0 75 0 0 -75 0 -75 -75 0 -75 0 0 -70 0 -70 -70 0 -70 0 0 215 0 215 -215 0 -215 0 0 -70 0 -70 140 0 140 0 0 -75 0 -75 -70 0 -70 0 0 -70 0 -70 -145 0 -145 0 0 70 0 70 -70 0 -70 0 0 75 0 75 -75 0 -75 0 0 70 0 70 -140 0 -140 0 0 -145 0 -145 215 0 215 0 0 -140 0 -140 -75 0 -75 0 0 70 0 70 -70 0 -70 0 0 -70 0 -70 -70 0 -70 0 0 -75 0 -75 70 0 70 0 0 -70 0 -70 70 0 70 0 0 -75 0 -75 75 0 75 0 0 220 0 220 145 0 145 0 0 -75 0 -75 -75 0 -75 0 0 -70 0 -70 75 0 75 0 0 -75 0 -75 140 0 140 0 0 -70 0 -70 -285 0 -285 0 0 -145 0 -145 -75 0 -75 0 0 75 0 75 -70 0 -70 0 0 140 0 140 -70 0 -70 0 0 -500 0 -500 70 0 70 0 0 70 0 70 70 0 70 0 0 145 0 145 75 0 75 0 0 -145 0 -145 70 0 70 0 0 70 0 70 75 0 75 0 0 220 0 220 360 0 360 0 0 -75 0 -75 -145 0 -145 0 0 -70 0 -70 70 0 70 0 0 -215 0 -215 -70 0 -70 0 0 140 0 140 -145 0 -145 0 0 -70 0 -70 70 0 70 0 0 -70 0 -70 -70 0 -70 0 0 -75 0 -75 360 0 360 0 0 75 0 75 70 0 70 0 0 70 0 70 145 0 145 0 0 70 0 70 -145 0 -145 0 0 220 0 220 145 0 145 0 0 -75 0 -75 -70 0 -70 0 0 -70 0 -70 215 0 215 0 0 145 0 145 145 0 145 0 0 -145 0 -145 145 0 145 0 0 -75 0 -75 70 0 70 0 0 145 0 145 -70 0 -70 0 0 75 0 75 -145 0 -145 0 0 70 0 70 -75 0 -75 0 0 70 0 70 -70 0 -70 0 0 220 0 220 -70 0 -70 0 0 70 0 70 70 0 70 0 0 70 0 70 70 0 70 0 0 -70 0 -70 75 0 75 0 0 -70 0 -70 70 0 70 0 0 70 0 70 -70 0 -70 0 0 70 0 70 145 0 145 0 0 -70 0 -70 140 0 140 0 0 -70 0 -70 -70 0 -70 0 0 -75 0 -75 70 0 70 0 0 75 0 75 75 0 75 0 0 140 0 140 145 0 145 0 0 75 0 75 70 0 70 0 0 -215 0 -215 -70 0 -70 0 0 70 0 70 -75 0 -75 0 0 -70 0 -70 75 0 75 0 0 -75 0 -75 -145 0 -145 0 0 -70 0 -70 -215 0 -215 0 0 70 0 70 -145 0 -145 0 0 -145 0 -145 70 0 70 0 0 75 0 75 75 0 75 0 0 -75 0 -75 215 0 215 0 0 75 0 75 145 0 145 0 0 70 0 70 70 0 70 0 0 75 0 75 145 0 145 0 0 -75 0 -75 -75 0 -75 0 0 -70 0 -70 -70 0 -70 0 0 -75 0 -75 70 0 70 0 0 -70 0 -70 -70 0 -70 0 0 -70 0 -70 70 0 70 0 0 -75 0 -75 -140 0 -140 0 0 145 0 145 -75 0 -75 0 0 -70 0 -70 -70 0 -70 0 0 70 0 70 -145 0 -145 0 0 -70 0 -70 145 0 145 0 0 -75 0 -75 -75 0 -75 0 0 -145 0 -145 145 0 145 0 0 -70 0 -70 145 0 145 0 0 -215 0 -215 -215 0 -215 0 0 215 0 215 -75 0 -75 0 0 -70 0 -70 -140 0 -140 0 0 -145 0 -145 -75 0 -75 0 0 -75 0 -75 -145 0 -145 0 0 -70 0 -70 -70 0 -70 0 0 70 0 70 -70 0 -70 0 0 145 0 145 70 0 70 0 0 -70 0 -70 70 0 70 0 0 70 0 70 145 0 145 0 0 145 0 145 -70 0 -70 0 0 70 0 70 -145 0 -145 0 0 -70 0 -70 -70 0 -70 0 0 -145 0 -145 -75 0 -75 0 0 -215 0 -215 75 0 75 0 0 -70 0 -70 -75 0 -75 0 0 -75 0 -75 -70 0 -70 0 0 145 0 145 -75 0 -75 0 0 70 0 70 75 0 75 0 0 145 0 145 -75 0 -75 0 0 -145 0 -145 -70 0 -70 0 0 -70 0 -70 70 0 70 0 0 -70 0 -70 -215 0 -215 0 0 70 0 70 75 0 75 0 0 70 0 70 -145 0 -145 0 0 75 0 75 -215 0 -215 0 0 145 0 145 -145 0 -145 0 0 -75 0 -75 -145 0 -145 0 0 -145 0 -145 -70 0 -70 0 0 -285 0 -285 70 0 70 0 0 285 0 285 145 0 145 0 0 -70 0 -70 -75 0 -75 0 0 -70 0 -70 75 0 75 0 0 70 0 70 70 0 70 0 0 70 0 70 -70 0 -70 0 0 75 0 75 145 0 145 0 0 -75 0 -75 215 0 215 0 0 -70 0 -70 -215 0 -215 0 0 -70 0 -70 -75 0 -75 0 0 -145 0 -145 75 0 75 0 0 145 0 145 140 0 140 0 0 -75 0 -75 -70 0 -70 0 0 -70 0 -70 145 0 145 0 0 -215 0 -215 70 0 70 0 0 -145 0 -145 75 0 75 0 0 -75 0 -75 70 0 70 0 0 -140 0 -140 145 0 145 0 0 70 0 70 -75 0 -75 0 0 70 0 70 75 0 75 0 0 75 0 75 -75 0 -75 0 0 70 0 70 145 0 145 0 0 75 0 75 215 0 215 0 0 -220 0 -220 -70 0 -70 0 0 75 0 75 -145 0 -145 0 0 -215 0 -215 145 0 145 0 0 70 0 70 70 0 70 0 0 70 0 70 75 0 75 0 0 -70 0 -70 70 0 70 0 0 70 0 70 -70 0 -70 0 0 75 0 75 215 0 215 0 0 -75 0 -75 70 0 70 0 0 -140 0 -140 290 0 290 0 0 70 0 70 70 0 70 0 0 -70 0 -70 145 0 145 0 0 70 0 70 75 0 75 0 0 -70 0 -70 215 0 215 0 0 70 0 70 70 0 70 0 0 70 0 70 145 0 145 0 0 -140 0 -140 70 0 70 0 0 215 0 215 -215 0 -215 0 0 70 0 70 75 0 75 0 0 75 0 75 140 0 140 0 0 140 0 140 -70 0 -70 0 0 75 0 75 70 0 70 0 0 70 0 70 -70 0 -70 0 0 75 0 75 70 0 70 0 0 70 0 70 -70 0 -70 0 0 70 0 70 70 0 70 0 0 220 0 220 -70 0 -70 0 0 70 0 70 70 0 70 0 0 215 0 215 -70 0 -70 0 0 -215 0 -215 -70 0 -70 0 0 70 0 70 -75 0 -75 0 0 75 0 75 -70 0 -70 0 0 70 0 70 -215 0 -215 0 0 75 0 75 215 0 215 0 0 70 0 70 70 0 70 0 0 -70 0 -70 215 0 215 0 0 215 0 215 -70 0 -70 0 0 70 0 70 70 0 70 0 0 75 0 75 -140 0 -140 0 0 -75 0 -75 -75 0 -75 0 0 215 0 215 75 0 75 0 0 -70 0 -70 140 0 140 0 0 70 0 70 -70 0 -70 0 0 75 0 75 -145 0 -145 0 0 70 0 70 -145 0 -145 0 0 -70 0 -70 -70 0 -70 0 0 -145 0 -145 -70 0 -70 0 0 70 0 70 -75 0 -75 0 0 505 0 505 -70 0 -70 0 0 75 0 75 70 0 70 0 0 70 0 70 -70 0 -70 0 0 70 0 70 -290 0 -290 0 0 -70 0 -70 75 0 75 0 0 -70 0 -70 70 0 70 0 0 70 0 70 145 0 145 0 0 -70 0 -70 -75 0 -75 0 0 -220 0 -220 75 0 75 0 0 -285 0 -285 -145 0 -145 0 0 70 0 70 70 0 70 0 0 145 0 145 -70 0 -70 0 0 145 0 145 -70 0 -70 0 0 70 0 70 -75 0 -75 0 0 -70 0 -70 -70 0 -70 0 0 70 0 70 -75 0 -75 0 0 75 0 75 -70 0 -70 0 0 140 0 140 -70 0 -70 0 0 -285 0 -285 -75 0 -75 0 0 215 0 215 -70 0 -70 0 0 -145 0 -145 -75 0 -75 0 0 -145 0 -145 75 0 75 0 0 -140 0 -140 70 0 70 0 0 -75 0 -75 -285 0 -285 0 0 145 0 145 -75 0 -75 0 0 -145 0 -145 -70 0 -70 0 0 -70 0 -70 -75 0 -75 0 0 70 0 70 -140 0 -140 0 0 75 0 75 70 0 70 0 0 140 0 140 70 0 70 0 0 75 0 75 -70 0 -70 0 0 70 0 70 -70 0 -70 0 0 215 0 215 -75 0 -75 0 0 -215z m150 -285 l0 -70 70 0 70 0 0 -75 0 -75 -145 0 -145 0 0 145 0 145 75 0 75 0 0 -70z m1290 -145 l0 -75 75 0 75 0 0 75 0 75 70 0 70 0 0 -75 0 -75 70 0 70 0 0 -215 0 -215 145 0 145 0 0 75 0 75 -70 0 -70 0 0 140 0 140 145 0 145 0 0 -70 0 -70 70 0 70 0 0 -145 0 -145 -70 0 -70 0 0 -70 0 -70 -220 0 -220 0 0 -75 0 -75 -70 0 -70 0 0 290 0 290 -70 0 -70 0 0 -70 0 -70 -75 0 -75 0 0 140 0 140 -70 0 -70 0 0 75 0 75 70 0 70 0 0 -75z m-1290 -285 l0 -70 -75 0 -75 0 0 70 0 70 75 0 75 0 0 -70z m720 -365 l0 -145 -75 0 -75 0 0 -285 0 -285 75 0 75 0 0 -215 0 -215 -75 0 -75 0 0 70 0 70 -70 0 -70 0 0 70 0 70 -75 0 -75 0 0 -70 0 -70 -140 0 -140 0 0 70 0 70 -75 0 -75 0 0 -70 0 -70 -70 0 -70 0 0 70 0 70 70 0 70 0 0 145 0 145 -145 0 -145 0 0 -70 0 -70 -70 0 -70 0 0 70 0 70 70 0 70 0 0 75 0 75 -70 0 -70 0 0 70 0 70 145 0 145 0 0 -70 0 -70 145 0 145 0 0 70 0 70 70 0 70 0 0 70 0 70 70 0 70 0 0 -70 0 -70 75 0 75 0 0 145 0 145 70 0 70 0 0 70 0 70 75 0 75 0 0 -145z m720 75 l0 -70 -75 0 -75 0 0 70 0 70 75 0 75 0 0 -70z m-290 -145 l0 -75 -75 0 -75 0 0 75 0 75 75 0 75 0 0 -75z m2160 -360 l0 -285 70 0 70 0 0 -75 0 -75 -70 0 -70 0 0 -70 0 -70 -75 0 -75 0 0 70 0 70 75 0 75 0 0 75 0 75 -75 0 -75 0 0 145 0 145 -70 0 -70 0 0 70 0 70 70 0 70 0 0 70 0 70 75 0 75 0 0 -285z m-580 75 l0 -70 75 0 75 0 0 -75 0 -75 70 0 70 0 0 -215 0 -215 -70 0 -70 0 0 145 0 145 -75 0 -75 0 0 -215 0 -215 -145 0 -145 0 0 70 0 70 75 0 75 0 0 145 0 145 70 0 70 0 0 145 0 145 -70 0 -70 0 0 70 0 70 70 0 70 0 0 -70z m-3890 -145 l0 -75 -70 0 -70 0 0 75 0 75 70 0 70 0 0 -75z m0 -865 l0 -70 -70 0 -70 0 0 70 0 70 70 0 70 0 0 -70z m290 0 l0 -70 -70 0 -70 0 0 70 0 70 70 0 70 0 0 -70z m3030 0 l0 -70 70 0 70 0 0 -75 0 -75 70 0 70 0 0 75 0 75 75 0 75 0 0 70 0 70 145 0 145 0 0 -70 0 -70 -75 0 -75 0 0 -145 0 -145 145 0 145 0 0 70 0 70 70 0 70 0 0 75 0 75 75 0 75 0 0 -75 0 -75 70 0 70 0 0 -215 0 -215 75 0 75 0 0 -70 0 -70 70 0 70 0 0 -75 0 -75 -145 0 -145 0 0 -70 0 -70 -70 0 -70 0 0 -70 0 -70 70 0 70 0 0 -75 0 -75 -70 0 -70 0 0 75 0 75 -75 0 -75 0 0 215 0 215 75 0 75 0 0 285 0 285 -75 0 -75 0 0 -70 0 -70 -70 0 -70 0 0 -70 0 -70 70 0 70 0 0 -75 0 -75 -70 0 -70 0 0 -70 0 -70 -70 0 -70 0 0 -75 0 -75 70 0 70 0 0 -70 0 -70 -70 0 -70 0 0 70 0 70 -75 0 -75 0 0 75 0 75 -70 0 -70 0 0 285 0 285 -75 0 -75 0 0 -70 0 -70 -70 0 -70 0 0 70 0 70 -70 0 -70 0 0 75 0 75 -75 0 -75 0 0 70 0 70 75 0 75 0 0 -70z m-1880 -290 l0 -70 -70 0 -70 0 0 -70 0 -70 -70 0 -70 0 0 140 0 140 140 0 140 0 0 -70z m870 -140 l0 -70 -75 0 -75 0 0 70 0 70 75 0 75 0 0 -70z m570 -365 l0 -145 -70 0 -70 0 0 145 0 145 70 0 70 0 0 -145z m720 -210 l0 -215 -70 0 -70 0 0 -75 0 -75 70 0 70 0 0 -70 0 -70 75 0 75 0 0 -215 0 -215 -75 0 -75 0 0 -75 0 -75 75 0 75 0 0 -70 0 -70 70 0 70 0 0 70 0 70 75 0 75 0 0 -70 0 -70 70 0 70 0 0 70 0 70 145 0 145 0 0 -70 0 -70 70 0 70 0 0 -75 0 -75 -145 0 -145 0 0 75 0 75 -70 0 -70 0 0 -145 0 -145 -70 0 -70 0 0 145 0 145 -75 0 -75 0 0 -75 0 -75 -70 0 -70 0 0 75 0 75 -75 0 -75 0 0 70 0 70 -70 0 -70 0 0 -215 0 -215 -70 0 -70 0 0 215 0 215 -220 0 -220 0 0 -70 0 -70 -70 0 -70 0 0 145 0 145 -70 0 -70 0 0 -75 0 -75 -145 0 -145 0 0 75 0 75 -75 0 -75 0 0 70 0 70 75 0 75 0 0 70 0 70 -75 0 -75 0 0 75 0 75 -215 0 -215 0 0 -75 0 -75 -70 0 -70 0 0 -70 0 -70 70 0 70 0 0 -70 0 -70 -145 0 -145 0 0 215 0 215 -70 0 -70 0 0 -290 0 -290 -70 0 -70 0 0 75 0 75 -75 0 -75 0 0 140 0 140 75 0 75 0 0 145 0 145 215 0 215 0 0 -70 0 -70 70 0 70 0 0 70 0 70 145 0 145 0 0 75 0 75 145 0 145 0 0 70 0 70 70 0 70 0 0 70 0 70 75 0 75 0 0 -140 0 -140 140 0 140 0 0 70 0 70 75 0 75 0 0 70 0 70 215 0 215 0 0 75 0 75 70 0 70 0 0 -215z m290 -145 l0 -70 75 0 75 0 0 -75 0 -75 -145 0 -145 0 0 145 0 145 70 0 70 0 0 -70z m-2880 -290 l0 -70 -70 0 -70 0 0 70 0 70 70 0 70 0 0 -70z m3890 0 l0 -70 -70 0 -70 0 0 70 0 70 70 0 70 0 0 -70z m-580 -285 l0 -215 -215 0 -215 0 0 215 0 215 215 0 215 0 0 -215z m580 -5 l0 -70 -70 0 -70 0 0 -70 0 -70 -145 0 -145 0 0 140 0 140 215 0 215 0 0 -70z m-3460 -575 l0 -75 -70 0 -70 0 0 75 0 75 70 0 70 0 0 -75z m1730 0 l0 -75 -70 0 -70 0 0 75 0 75 70 0 70 0 0 -75z m-1150 -145 l0 -70 -70 0 -70 0 0 70 0 70 70 0 70 0 0 -70z"/>
<path d="M3750 4690 l0 -70 75 0 75 0 0 70 0 70 -75 0 -75 0 0 -70z"/>
<path d="M1880 3970 l0 -70 -70 0 -70 0 0 -220 0 -220 70 0 70 0 0 75 0 75 70 0 70 0 0 70 0 70 75 0 75 0 0 75 0 75 -75 0 -75 0 0 70 0 70 -70 0 -70 0 0 -70z m140 -145 l0 -75 -70 0 -70 0 0 75 0 75 70 0 70 0 0 -75z"/>
<path d="M4470 2385 l0 -75 75 0 75 0 0 75 0 75 -75 0 -75 0 0 -75z"/>
<path d="M3900 1810 l0 -70 70 0 70 0 0 70 0 70 -70 0 -70 0 0 -70z"/>
<path d="M2740 1520 l0 -70 75 0 75 0 0 70 0 70 -75 0 -75 0 0 -70z"/>
<path d="M3320 1520 l0 -70 145 0 145 0 0 -145 0 -145 70 0 70 0 0 -70 0 -70 75 0 75 0 0 -75 0 -75 70 0 70 0 0 75 0 75 -70 0 -70 0 0 70 0 70 140 0 140 0 0 145 0 145 -70 0 -70 0 0 70 0 70 -145 0 -145 0 0 -70 0 -70 -70 0 -70 0 0 70 0 70 -145 0 -145 0 0 -70z"/>
<path d="M3030 1305 l0 -145 215 0 215 0 0 70 0 70 -140 0 -140 0 0 75 0 75 -75 0 -75 0 0 -145z"/>
<path d="M4620 1230 l0 -70 70 0 70 0 0 70 0 70 -70 0 -70 0 0 -70z"/>
<path d="M2170 5550 l0 -70 70 0 70 0 0 -145 0 -145 -70 0 -70 0 0 75 0 75 -75 0 -75 0 0 -75 0 -75 75 0 75 0 0 -145 0 -145 145 0 145 0 0 290 0 290 -75 0 -75 0 0 70 0 70 -70 0 -70 0 0 -70z"/>
<path d="M2600 5550 l0 -70 70 0 70 0 0 70 0 70 -70 0 -70 0 0 -70z"/>
<path d="M4620 5120 l0 -500 500 0 500 0 0 500 0 500 -500 0 -500 0 0 -500z m860 0 l0 -360 -360 0 -360 0 0 360 0 360 360 0 360 0 0 -360z"/>
<path d="M4900 5120 l0 -220 220 0 220 0 0 220 0 220 -220 0 -220 0 0 -220z"/>
<path d="M2020 4690 l0 -70 75 0 75 0 0 70 0 70 -75 0 -75 0 0 -70z"/>
<path d="M2600 4690 l0 -70 70 0 70 0 0 70 0 70 -70 0 -70 0 0 -70z"/>
<path d="M1160 2960 l0 -70 70 0 70 0 0 70 0 70 -70 0 -70 0 0 -70z"/>
<path d="M300 800 l0 -500 500 0 500 0 0 500 0 500 -500 0 -500 0 0 -500z m860 0 l0 -360 -360 0 -360 0 0 360 0 360 360 0 360 0 0 -360z"/>
<path d="M580 800 l0 -220 220 0 220 0 0 220 0 220 -220 0 -220 0 0 -220z"/>
<path d="M1450 440 l0 -140 70 0 70 0 0 140 0 140 -70 0 -70 0 0 -140z"/>
</g>
</svg>